<?xml version="1.0" standalone="no"?><!DOCTYPE svg PUBLIC "-//W3C//DTD SVG 1.1//EN" "http://www.w3.org/Graphics/SVG/1.1/DTD/svg11.dtd"><svg t="1756975871211" class="icon" viewBox="0 0 1024 1024" version="1.1" xmlns="http://www.w3.org/2000/svg" p-id="3792" xmlns:xlink="http://www.w3.org/1999/xlink" width="200" height="200"><path d="M832 288V832a128 128 0 0 1-128 128H320a128 128 0 0 1-128-128V288h640zM576 64a64 64 0 0 1 64 64h240a48 48 0 1 1 0 96H144a48 48 0 0 1 0-96H384a64 64 0 0 1 64-64h128zM448 464a48 48 0 0 0-96 0v288a48 48 0 1 0 96 0v-288z m224 0a48 48 0 1 0-96 0v288a48 48 0 1 0 96 0v-288z" fill="#ffffff" p-id="3793"></path></svg>