<?xml version="1.0" standalone="no"?><!DOCTYPE svg PUBLIC "-//W3C//DTD SVG 1.1//EN" "http://www.w3.org/Graphics/SVG/1.1/DTD/svg11.dtd"><svg t="1756721680052" class="icon" viewBox="0 0 1126 1024" version="1.1" xmlns="http://www.w3.org/2000/svg" p-id="4994" xmlns:xlink="http://www.w3.org/1999/xlink" width="219.921875" height="200"><path d="M1077.76 440.576l-195.9424-332.8A140.8 140.8 0 0 0 760.4736 38.4H365.9264a140.8 140.8 0 0 0-121.344 69.376l-195.8912 332.8a140.8 140.8 0 0 0 0 142.848l195.8912 332.8a140.8 140.8 0 0 0 121.344 69.376h394.5472a140.8 140.8 0 0 0 121.344-69.376l195.8912-332.8a140.8 140.8 0 0 0 0-142.848z m-66.2528 103.936l-195.8912 332.8a64 64 0 0 1-55.1424 31.488H365.9264a64 64 0 0 1-55.1424-31.5392l-195.8912-332.8a64 64 0 0 1 0-64.9216l195.8912-332.8a64 64 0 0 1 55.1424-31.5392h394.5472c22.6816 0 43.6736 11.9808 55.1424 31.5392l195.8912 332.8c11.776 20.0192 11.776 44.9024 0 64.9216z" fill="#ffffff" p-id="4995"></path><path d="M563.2 320a192 192 0 1 0 0 384 192 192 0 0 0 0-384z m0 76.8a115.2 115.2 0 1 1 0 230.4 115.2 115.2 0 0 1 0-230.4z" fill="#ffffff" p-id="4996"></path></svg>